<svg xmlns="http://www.w3.org/2000/svg" width="185" height="51" viewBox="0 0 185 51" fill="none"><path d="M184.465 13.5425V26.7807C184.465 30.3407 183.435 33.0915 181.375 35.0333C179.345 36.9457 176.477 37.9019 172.77 37.9019C169.298 37.9019 166.665 36.8869 164.87 34.8568C163.134 36.8869 160.516 37.9019 157.015 37.9019C153.278 37.9019 150.395 36.9457 148.365 35.0333C146.364 33.0915 145.364 30.3407 145.364 26.7807V24.2307H153.65V26.207C153.65 27.884 154.028 29.1197 154.587 29.9141C155.146 30.679 156.014 31.0615 157.191 31.0615C158.368 31.0615 159.251 30.6643 159.839 29.8699C160.427 29.0756 160.722 27.8546 160.722 26.207V13.5425H169.107V26.207C169.107 27.8546 169.401 29.0756 169.989 29.8699C170.578 30.6643 171.46 31.0615 172.637 31.0615C173.814 31.0615 174.682 30.679 175.241 29.9141C175.8 29.1197 176.08 27.884 176.08 26.207V13.5425L184.465 13.5425Z" fill="#120A2B"></path><path d="M153.65 13.5425V26.7584C153.65 30.3087 152.624 33.0521 150.572 34.9887C148.549 36.8959 145.691 37.8495 141.997 37.8495C138.538 37.8495 135.914 36.8372 134.126 34.8126C132.396 36.8372 129.787 37.8495 126.299 37.8495C122.576 37.8495 119.703 36.8959 117.68 34.9887C115.687 33.0521 114.69 30.3087 114.69 26.7584V13.5425H123.045V26.1862C123.045 27.8587 123.323 29.091 123.88 29.8832C124.437 30.6461 125.302 31.0276 126.475 31.0276C127.647 31.0276 128.527 30.6315 129.113 29.8392C129.699 29.047 129.993 27.8293 129.993 26.1862V13.5425H138.347V26.1862C138.347 27.8293 138.641 29.047 139.227 29.8392C139.813 30.6315 140.693 31.0276 141.865 31.0276C143.038 31.0276 143.903 30.6461 144.46 29.8832C145.017 29.091 145.295 27.8587 145.295 26.1862V13.5425H153.65Z" fill="#120A2B"></path><path d="M112.343 13.5847V37.5042H104.355V35.121C102.796 36.9746 100.442 37.9014 97.2938 37.9014C95.1166 37.9014 93.1307 37.4012 91.336 36.4009C89.5707 35.3711 88.1585 33.9148 87.0993 32.0318C86.0696 30.1489 85.5547 27.9717 85.5547 25.5003C85.5547 23.0289 86.0696 20.8664 87.0993 19.0129C88.1585 17.1299 89.5707 15.6883 91.336 14.688C93.1307 13.6877 95.1166 13.1875 97.2938 13.1875C100.118 13.1875 102.34 14.0113 103.958 15.6589V13.5847H112.343ZM99.059 31.2374C100.53 31.2374 101.736 30.7373 102.678 29.737C103.619 28.7072 104.09 27.295 104.09 25.5003C104.09 23.735 103.619 22.3522 102.678 21.3519C101.736 20.3516 100.53 19.8514 99.059 19.8514C97.588 19.8514 96.3817 20.3516 95.4402 21.3519C94.4988 22.3522 94.028 23.735 94.028 25.5003C94.028 27.295 94.4988 28.7072 95.4402 29.737C96.3817 30.7373 97.588 31.2374 99.059 31.2374Z" fill="#120A2B"></path><path d="M72.7809 1.30225C75.584 1.30225 78.0182 1.85389 80.0836 2.95719C82.149 4.02601 83.7423 5.57752 84.8635 7.61173C85.9848 9.61145 86.5454 11.9732 86.5454 14.697C86.5454 17.4207 85.9848 19.7825 84.8635 21.7822C83.7423 23.7819 82.149 25.3334 80.0836 26.4367C78.0182 27.5056 75.584 28.04 72.7809 28.04H67.3814V37.5042H58.6182V1.30225H72.7809ZM72.2498 19.9721C74.0497 19.9721 75.4069 19.5239 76.3216 18.6275C77.2363 17.6966 77.6936 16.3864 77.6936 14.697C77.6936 13.0075 77.2363 11.6974 76.3216 10.7665C75.4069 9.83556 74.0497 9.37011 72.2498 9.37011H67.3814V19.9721H72.2498Z" fill="#120A2B"></path><circle cx="180.025" cy="5.612" r="4.30975" fill="#120A2B"></circle><path d="M26.0676 10.4958C23.7258 10.4958 21.723 10.9272 20.0591 11.79C18.426 12.6527 17.1781 13.9161 16.3154 15.5799C15.4526 17.2438 15.0212 19.2775 15.0212 21.6809C15.0212 23.5605 15.391 25.3168 16.1305 26.9499C16.87 28.6137 17.9176 30.1236 19.2734 31.4793C20.6292 32.8351 22.2314 34.006 24.0802 34.992L25.7441 35.6853C26.9458 36.2707 28.2861 36.7329 29.7651 37.0719C31.275 37.4108 33.0467 37.5803 35.0803 37.5803C37.9459 37.5803 40.3647 37.1951 42.3368 36.4248C44.3396 35.6853 45.9419 34.6685 47.1435 33.3743C48.3761 32.0802 49.2696 30.6166 49.8243 28.9835C50.3789 27.3812 50.6562 25.7173 50.6562 23.9918C50.6562 21.8966 50.3481 20.0324 49.7318 18.3993C49.1464 16.797 48.3144 15.3643 47.236 14.1009C46.1575 12.8376 44.8942 11.6359 43.446 10.4958L39.0552 14.0085C39.9796 14.9329 40.7807 15.8573 41.4586 16.7816C42.1673 17.7368 42.7219 18.7845 43.1225 19.9245C43.523 21.0954 43.7233 22.4358 43.7233 23.9456C43.7233 25.7636 43.369 27.335 42.6603 28.66C41.9516 29.9849 40.9194 31.0171 39.5636 31.7566C38.2078 32.4962 36.544 32.8659 34.5719 32.8659C33.5551 32.8659 32.6769 32.8197 31.9374 32.7273C31.1979 32.6656 30.5046 32.5578 29.8576 32.4037L29.1181 32.3113C27.5466 31.695 26.2217 30.8323 25.1432 29.723C24.0648 28.6446 23.2482 27.412 22.6936 26.0255C22.139 24.6697 21.8617 23.2831 21.8617 21.8657C21.8617 20.1402 22.0619 18.7999 22.4625 17.8447C22.8631 16.9203 23.3869 16.2732 24.034 15.9035C24.681 15.5337 25.3589 15.3488 26.0676 15.3488C26.8071 15.3488 27.5004 15.5337 28.1475 15.9035C28.7945 16.2732 29.303 16.9049 29.6727 17.7985C30.0733 18.7228 30.2736 19.9862 30.2736 21.5884C30.2736 23.1907 30.0116 24.6697 29.4878 26.0255C28.964 27.3812 28.2091 28.5675 27.2231 29.5843C26.2371 30.632 25.0662 31.4639 23.7104 32.0802L22.555 32.4037C21.9695 32.5578 21.3687 32.6656 20.7524 32.7273C20.1361 32.8197 19.4891 32.8659 18.8112 32.8659C16.4694 32.8659 14.5436 32.4808 13.0338 31.7104C11.5548 30.9709 10.4455 29.9387 9.70602 28.6137C8.99733 27.2888 8.64298 25.7636 8.64298 24.038C8.64298 22.6207 8.81245 21.3419 9.15139 20.2019C9.52115 19.0618 10.045 17.9987 10.7228 17.0127C11.4315 16.0267 12.3097 15.0253 13.3573 14.0085L8.82786 10.4958C7.44129 11.6359 6.20877 12.8376 5.13033 14.1009C4.08269 15.3951 3.25075 16.8433 2.63449 18.4455C2.01824 20.0786 1.71011 21.9428 1.71011 24.038C1.71011 25.7019 1.98742 27.335 2.54205 28.9373C3.1275 30.5395 4.05188 31.9877 5.3152 33.2819C6.57853 34.6068 8.25782 35.6545 10.3531 36.4248C12.4484 37.1951 15.0058 37.5803 18.0255 37.5803C19.8434 37.5803 21.4765 37.4262 22.9247 37.1181C24.4037 36.8099 25.7903 36.3478 27.0844 35.7315L28.3786 35.2231C31.0593 33.8365 33.1854 31.9723 34.7568 29.6306C36.3283 27.3196 37.114 24.6543 37.114 21.6347C37.114 19.1696 36.6826 17.1052 35.8199 15.4413C34.9879 13.7774 33.74 12.5295 32.0761 11.6975C30.443 10.8964 28.4402 10.4958 26.0676 10.4958Z" fill="#120A2B"></path><circle cx="13.7182" cy="7.47792" r="3.25136" fill="#120A2B"></circle><circle cx="38.4789" cy="7.47792" r="3.25136" fill="#120A2B"></circle></svg>