<svg xmlns="http://www.w3.org/2000/svg" width="440" height="440" viewBox="0 0 440 440" fill="none"><circle cx="220" cy="220" r="220" fill="#F7AEF1"></circle><path d="M215.193 148.133C200.353 148.133 187.661 150.866 177.117 156.334C166.768 161.801 158.86 169.807 153.392 180.351C147.925 190.895 145.191 203.783 145.191 219.013C145.191 230.924 147.534 242.055 152.221 252.404C156.907 262.948 163.546 272.516 172.137 281.107C180.729 289.699 190.883 297.119 202.599 303.367L213.143 307.761C220.758 311.471 229.252 314.4 238.625 316.548C248.193 318.696 259.42 319.77 272.308 319.77C290.467 319.77 305.796 317.329 318.292 312.447C330.985 307.761 341.138 301.317 348.754 293.116C356.564 284.915 362.227 275.64 365.742 265.291C369.256 255.137 371.014 244.593 371.014 233.658C371.014 220.38 369.061 208.567 365.156 198.218C361.446 188.064 356.174 178.984 349.339 170.979C342.505 162.973 334.499 155.357 325.322 148.133L297.497 170.393C303.355 176.251 308.432 182.109 312.727 187.966C317.218 194.02 320.733 200.659 323.272 207.883C325.81 215.303 327.079 223.797 327.079 233.365C327.079 244.886 324.834 254.844 320.343 263.241C315.852 271.637 309.31 278.178 300.719 282.865C292.127 287.551 281.583 289.894 269.086 289.894C262.642 289.894 257.077 289.601 252.391 289.015C247.705 288.625 243.311 287.942 239.211 286.965L234.524 286.379C224.566 282.474 216.169 277.007 209.335 269.977C202.501 263.143 197.327 255.332 193.812 246.546C190.297 237.954 188.54 229.167 188.54 220.185C188.54 209.25 189.809 200.756 192.347 194.703C194.886 188.845 198.205 184.745 202.306 182.401C206.406 180.058 210.702 178.887 215.193 178.887C219.879 178.887 224.273 180.058 228.373 182.401C232.474 184.745 235.696 188.748 238.039 194.41C240.577 200.268 241.847 208.274 241.847 218.428C241.847 228.581 240.187 237.954 236.867 246.546C233.548 255.137 228.764 262.655 222.516 269.099C216.267 275.738 208.847 281.01 200.255 284.915L192.933 286.965C189.223 287.942 185.415 288.625 181.51 289.015C177.605 289.601 173.504 289.894 169.209 289.894C154.368 289.894 142.165 287.453 132.597 282.572C123.224 277.885 116.194 271.344 111.508 262.948C107.017 254.551 104.771 244.886 104.771 233.951C104.771 224.969 105.845 216.866 107.993 209.641C110.337 202.416 113.656 195.679 117.952 189.431C122.443 183.182 128.008 176.836 134.647 170.393L105.943 148.133C97.1562 155.357 89.3457 162.973 82.5114 170.979C75.8725 179.18 70.6003 188.357 66.6951 198.511C62.7898 208.86 60.8371 220.673 60.8371 233.951C60.8371 244.495 62.5945 254.844 66.1093 264.998C69.8193 275.152 75.6772 284.329 83.683 292.53C91.6888 300.927 102.331 307.566 115.609 312.447C128.887 317.329 145.093 319.77 164.229 319.77C175.75 319.77 186.099 318.793 195.276 316.841C204.649 314.888 213.436 311.959 221.637 308.054L229.838 304.832C246.826 296.045 260.299 284.232 270.258 269.391C280.216 254.747 285.195 237.856 285.195 218.721C285.195 203.099 282.462 190.017 276.994 179.472C271.722 168.928 263.814 161.02 253.27 155.748C242.921 150.671 230.228 148.133 215.193 148.133Z" fill="#120A2B"></path><circle cx="136.935" cy="135.604" r="20.6042" fill="#120A2B"></circle><circle cx="293.846" cy="135.605" r="20.6042" fill="#120A2B"></circle></svg>